<svg width="25" height="24" viewBox="0 0 25 24" fill="none" xmlns="http://www.w3.org/2000/svg">
<path d="M12.5 22.75C6.57 22.75 1.75 17.93 1.75 12C1.75 6.07 6.57 1.25 12.5 1.25C18.43 1.25 23.25 6.07 23.25 12C23.25 17.93 18.43 22.75 12.5 22.75ZM12.5 2.75C7.4 2.75 3.25 6.9 3.25 12C3.25 17.1 7.4 21.25 12.5 21.25C17.6 21.25 21.75 17.1 21.75 12C21.75 6.9 17.6 2.75 12.5 2.75Z" fill="#1D3461"/>
<path d="M15 12.75H9C8.59 12.75 8.25 12.41 8.25 12C8.25 11.59 8.59 11.25 9 11.25H15C15.41 11.25 15.75 11.59 15.75 12C15.75 12.41 15.41 12.75 15 12.75Z" fill="#1D3461"/>
<path d="M12.9999 15.7499C12.8099 15.7499 12.6199 15.6799 12.4699 15.5299C12.1799 15.2399 12.1799 14.7599 12.4699 14.4699L14.9399 11.9999L12.4699 9.52994C12.1799 9.23994 12.1799 8.75994 12.4699 8.46994C12.7599 8.17994 13.2399 8.17994 13.5299 8.46994L16.5299 11.4699C16.8199 11.7599 16.8199 12.2399 16.5299 12.5299L13.5299 15.5299C13.3799 15.6799 13.1899 15.7499 12.9999 15.7499Z" fill="#1D3461"/>
</svg>
