<svg width="49" height="48" viewBox="0 0 49 48" fill="none" xmlns="http://www.w3.org/2000/svg">
<path d="M42.167 45.5H6.16699C5.34699 45.5 4.66699 44.82 4.66699 44C4.66699 43.18 5.34699 42.5 6.16699 42.5H42.167C42.987 42.5 43.667 43.18 43.667 44C43.667 44.82 42.987 45.5 42.167 45.5Z" fill="#1D3461"/>
<path d="M11.3669 39.5H8.16699C6.24699 39.5 4.66699 37.92 4.66699 36V18.76C4.66699 16.84 6.24699 15.26 8.16699 15.26H11.3669C13.2869 15.26 14.8669 16.84 14.8669 18.76V36C14.8669 37.92 13.2869 39.5 11.3669 39.5ZM8.16699 18.24C7.88699 18.24 7.66699 18.46 7.66699 18.74V36C7.66699 36.28 7.88699 36.5 8.16699 36.5H11.3669C11.6469 36.5 11.8669 36.28 11.8669 36V18.76C11.8669 18.48 11.6469 18.26 11.3669 18.26H8.16699V18.24Z" fill="#1D3461"/>
<path d="M25.7673 39.5H22.5674C20.6474 39.5 19.0674 37.92 19.0674 36V12.38C19.0674 10.46 20.6474 8.88 22.5674 8.88H25.7673C27.6873 8.88 29.2673 10.46 29.2673 12.38V36C29.2673 37.92 27.6873 39.5 25.7673 39.5ZM22.5674 11.88C22.2874 11.88 22.0674 12.1 22.0674 12.38V36C22.0674 36.28 22.2874 36.5 22.5674 36.5H25.7673C26.0473 36.5 26.2673 36.28 26.2673 36V12.38C26.2673 12.1 26.0473 11.88 25.7673 11.88H22.5674Z" fill="#1D3461"/>
<path d="M40.1667 39.5H36.9668C35.0468 39.5 33.4668 37.92 33.4668 36V6C33.4668 4.08 35.0468 2.5 36.9668 2.5H40.1667C42.0867 2.5 43.6667 4.08 43.6667 6V36C43.6667 37.92 42.0867 39.5 40.1667 39.5ZM36.9668 5.5C36.6868 5.5 36.4668 5.72 36.4668 6V36C36.4668 36.28 36.6868 36.5 36.9668 36.5H40.1667C40.4467 36.5 40.6667 36.28 40.6667 36V6C40.6667 5.72 40.4467 5.5 40.1667 5.5H36.9668Z" fill="#1D3461"/>
</svg>
