<svg width="49" height="48" viewBox="0 0 49 48" fill="none" xmlns="http://www.w3.org/2000/svg">
<path d="M29.6335 41.5H20.0335C11.2535 41.5 7.3335 37.58 7.3335 28.8V19.2C7.3335 10.42 11.2535 6.5 20.0335 6.5H29.6335C38.4135 6.5 42.3335 10.42 42.3335 19.2V28.8C42.3335 37.58 38.4135 41.5 29.6335 41.5ZM20.0335 9.5C12.8735 9.5 10.3335 12.04 10.3335 19.2V28.8C10.3335 35.96 12.8735 38.5 20.0335 38.5H29.6335C36.7935 38.5 39.3335 35.96 39.3335 28.8V19.2C39.3335 12.04 36.7935 9.5 29.6335 9.5H20.0335Z" fill="#1D3461"/>
<path d="M27.8335 35.5H21.8335C16.0335 35.5 13.3335 32.8 13.3335 27V21C13.3335 15.2 16.0335 12.5 21.8335 12.5H27.8335C33.6335 12.5 36.3335 15.2 36.3335 21V27C36.3335 32.8 33.6335 35.5 27.8335 35.5ZM21.8335 15.5C17.6735 15.5 16.3335 16.84 16.3335 21V27C16.3335 31.16 17.6735 32.5 21.8335 32.5H27.8335C31.9935 32.5 33.3335 31.16 33.3335 27V21C33.3335 16.84 31.9935 15.5 27.8335 15.5H21.8335Z" fill="#1D3461"/>
<path d="M16.8535 9.5C16.0135 9.5 15.3535 8.82 15.3535 8V4C15.3535 3.18 16.0335 2.5 16.8535 2.5C17.6735 2.5 18.3535 3.18 18.3535 4V8C18.3535 8.82 17.6735 9.5 16.8535 9.5Z" fill="#1D3461"/>
<path d="M24.8335 9.5C24.0135 9.5 23.3335 8.82 23.3335 8V4C23.3335 3.18 24.0135 2.5 24.8335 2.5C25.6535 2.5 26.3335 3.18 26.3335 4V8C26.3335 8.82 25.6535 9.5 24.8335 9.5Z" fill="#1D3461"/>
<path d="M32.8335 9.5C32.0135 9.5 31.3335 8.82 31.3335 8V4C31.3335 3.18 32.0135 2.5 32.8335 2.5C33.6535 2.5 34.3335 3.18 34.3335 4V8C34.3335 8.82 33.6535 9.5 32.8335 9.5Z" fill="#1D3461"/>
<path d="M44.8335 17.5H40.8335C40.0135 17.5 39.3335 16.82 39.3335 16C39.3335 15.18 40.0135 14.5 40.8335 14.5H44.8335C45.6535 14.5 46.3335 15.18 46.3335 16C46.3335 16.82 45.6735 17.5 44.8335 17.5Z" fill="#1D3461"/>
<path d="M44.8335 25.5H40.8335C40.0135 25.5 39.3335 24.82 39.3335 24C39.3335 23.18 40.0135 22.5 40.8335 22.5H44.8335C45.6535 22.5 46.3335 23.18 46.3335 24C46.3335 24.82 45.6735 25.5 44.8335 25.5Z" fill="#1D3461"/>
<path d="M44.8335 33.5H40.8335C40.0135 33.5 39.3335 32.82 39.3335 32C39.3335 31.18 40.0135 30.5 40.8335 30.5H44.8335C45.6535 30.5 46.3335 31.18 46.3335 32C46.3335 32.82 45.6735 33.5 44.8335 33.5Z" fill="#1D3461"/>
<path d="M32.8335 45.5C32.0135 45.5 31.3335 44.82 31.3335 44V40C31.3335 39.18 32.0135 38.5 32.8335 38.5C33.6535 38.5 34.3335 39.18 34.3335 40V44C34.3335 44.82 33.6535 45.5 32.8335 45.5Z" fill="#1D3461"/>
<path d="M24.8535 45.5C24.0335 45.5 23.3535 44.82 23.3535 44V40C23.3535 39.18 24.0335 38.5 24.8535 38.5C25.6735 38.5 26.3535 39.18 26.3535 40V44C26.3535 44.82 25.6735 45.5 24.8535 45.5Z" fill="#1D3461"/>
<path d="M16.8535 45.5C16.0335 45.5 15.3535 44.82 15.3535 44V40C15.3535 39.18 16.0335 38.5 16.8535 38.5C17.6735 38.5 18.3535 39.18 18.3535 40V44C18.3535 44.82 17.6735 45.5 16.8535 45.5Z" fill="#1D3461"/>
<path d="M8.8335 17.5H4.8335C4.0135 17.5 3.3335 16.84 3.3335 16C3.3335 15.16 4.0135 14.5 4.8335 14.5H8.8335C9.6535 14.5 10.3335 15.18 10.3335 16C10.3335 16.82 9.6735 17.5 8.8335 17.5Z" fill="#1D3461"/>
<path d="M8.8335 25.5H4.8335C4.0135 25.5 3.3335 24.82 3.3335 24C3.3335 23.18 4.0135 22.5 4.8335 22.5H8.8335C9.6535 22.5 10.3335 23.18 10.3335 24C10.3335 24.82 9.6735 25.5 8.8335 25.5Z" fill="#1D3461"/>
<path d="M8.8335 33.5H4.8335C4.0135 33.5 3.3335 32.82 3.3335 32C3.3335 31.18 4.0135 30.5 4.8335 30.5H8.8335C9.6535 30.5 10.3335 31.18 10.3335 32C10.3335 32.82 9.6735 33.5 8.8335 33.5Z" fill="#1D3461"/>
</svg>
